{"title":"The Blacklist S01E12 480p HDTV x264 AAC E-Subs [GWC].mp4","uid":9504560,"size":145615861,"categoryP":"video","categoryS":"tv_shows","magnet":"?xt=urn:btih:84c6784c7b6e987181820a14d9ecacc673968aec&amp;dn=The+Blacklist+S01E12+480p+HDTV+x264+AAC+E-Subs+%5BGWC%5D.mp4&amp;tr=udp%3A%2F%2Ftracker.openbittorrent.com%3A80&amp;tr=udp%3A%2F%2Fopen.demonii.com%3A1337&amp;tr=udp%3A%2F%2Ftracker.coppersurfer.tk%3A6969&amp;tr=udp%3A%2F%2Fexodus.desync.com%3A6969","seeders":2,"leechers":0,"uploader":"canc232","files":1,"time":1390292279,"description":"The Blacklist S01E12 480p HDTV x264 AAC E-Subs [GWC]\n\n\nSCREENS : &lt;a href=&quot;\nhttp://imageshack.com/a/img594/1170/5wzn.jpg&quot; rel=&quot;nofollow&quot; target=&quot;_NEW&quot;&gt;\nhttp://imageshack.com/a/img594/1170/5wzn.jpg&lt;/a&gt; &lt;a href=&quot;\nhttp://imageshack.com/a/img802/4827/59k2.jpg&quot; rel=&quot;nofollow&quot; target=&quot;_NEW&quot;&gt;\nhttp://imageshack.com/a/img802/4827/59k2.jpg&lt;/a&gt; &lt;a href=&quot;\nhttp://imageshack.com/a/img13/1285/pnmi.jpg&quot; rel=&quot;nofollow&quot; target=&quot;_NEW&quot;&gt;\nhttp://imageshack.com/a/img13/1285/pnmi.jpg&lt;/a&gt;\n\nMEDIA INFO :\nGeneral \nFormat : MPEG-4 \nFormat profile : Base Media \nFile size : 139 MiB \nDuration : 42mn 35s  \nOverall bit rate : 456 Kbps \n\nVideo \nFormat : AVC \nFormat profile : &lt;a class=&quot;__cf_email__&quot; href=&quot;/cdn-cgi/l/email-protection&quot; data-cfemail=&quot;0a42636d624a4639243a&quot;&gt;[email&amp;#160;protected]&lt;/a&gt;&lt;script cf-hash='f9e31' type=&quot;text/javascript&quot;&gt;\n/* &lt;![CDATA[ */!function(){try{var t=&quot;currentScript&quot;in document?document.currentScript:function(){for(var t=document.getElementsByTagName(&quot;script&quot;),e=t.length;e--;)if(t[e].getAttribute(&quot;cf-hash&quot;))return t[e]}();if(t&amp;&amp;t.previousSibling){var e,r,n,i,c=t.previousSibling,a=c.getAttribute(&quot;data-cfemail&quot;);if(a){for(e=&quot;&quot;,r=parseInt(a.substr(0,2),16),n=2;a.length-n;n+=2)i=parseInt(a.substr(n,2),16)^r,e+=String.fromCharCode(i);e=document.createTextNode(e),c.parentNode.replaceChild(e,c)}}}catch(u){}}();/* ]]&gt; */&lt;/script&gt; \nFormat settings, CABAC : Yes \nFormat settings, ReFrames : 4 frames \nDuration : 42mn 35s \nBit rate : 393 Kbps \nMaximum bit rate : 1 798 Kbps \nWidth : 720 pixels \nHeight : 404 pixels \nDisplay aspect ratio : 16:9 \nFrame rate : 23.976 fps \nStream size : 120 MiB (86%) \nTitle : The Blacklist S01E12 480p HDTV x264 AAC E-Subs [GWC] \nWriting library : x264 core \n\nAudio \nFormat : AAC \nFormat profile : HE-AAC / LC \nDuration : 42mn 35s \nBit rate mode : Variable \nChannel(s) : 2 channels \nSampling rate : 48.0 KHz / 24.0 KHz \nStream size : 18.3 MiB (13%) \nLanguage : English \n\nText \nFormat : Timed Text \nDuration : 42mn 8s  \nStream size : 29.7 KiB (0%) \nTitle : English Subtitle by n17t01 \nLanguage : English \n","torrent":{"xt":"urn:btih:84c6784c7b6e987181820a14d9ecacc673968aec","amp;dn":"The+Blacklist+S01E12+480p+HDTV+x264+AAC+E-Subs+%5BGWC%5D.mp4","amp;tr":["udp%3A%2F%2Ftracker.openbittorrent.com%3A80","udp%3A%2F%2Fopen.demonii.com%3A1337","udp%3A%2F%2Ftracker.coppersurfer.tk%3A6969","udp%3A%2F%2Fexodus.desync.com%3A6969"],"infoHash":"84c6784c7b6e987181820a14d9ecacc673968aec","infoHashBuffer":{"type":"Buffer","data":[132,198,120,76,123,110,152,113,129,130,10,20,217,236,172,198,115,150,138,236]},"announce":[],"urlList":[]}}